<svg width="18" height="18" viewBox="0 0 18 18" fill="none" xmlns="http://www.w3.org/2000/svg">
<path d="M17 12C17 11.4477 16.5523 11 16 11H12.6667C12.1144 11 11.6667 11.4477 11.6667 12V17H16C16.5523 17 17 16.5523 17 16V12Z" stroke="#EDA592" stroke-width="1.5"/>
<path d="M11.6667 8C11.6667 7.44772 11.219 7 10.6667 7H7.33335C6.78107 7 6.33335 7.44772 6.33335 8V17H11.6667V8Z" stroke="#EDA592" stroke-width="1.5"/>
<path d="M6.33331 2C6.33331 1.44772 5.8856 1 5.33331 1H1.99998C1.4477 1 0.999979 1.44772 0.999979 2V16C0.999979 16.5523 1.44769 17 1.99998 17H6.33331V2Z" stroke="#EDA592" stroke-width="1.5"/>
</svg>
