<svg width="228" height="228" viewBox="0 0 228 228" fill="none" xmlns="http://www.w3.org/2000/svg">
<g filter="url(#filter0_b_402_224)">
<circle cx="114" cy="114" r="113" fill="#29ACD6" fill-opacity="0.35"/>
<circle cx="114" cy="114" r="113.5" stroke="url(#paint0_linear_402_224)" stroke-linecap="round"/>
</g>
<g filter="url(#filter1_d_402_224)">
<path d="M94.1234 106.454C88.3438 100.719 84.766 92.7763 84.766 84C84.766 75.2237 88.3438 67.2813 94.1234 61.5459C90.7959 59.9155 87.0529 59 83.0957 59C69.2592 59 58.0426 70.1929 58.0426 84C58.0426 97.8071 69.2592 109 83.0957 109C87.0529 109 90.7959 108.084 94.1234 106.454Z" fill="url(#paint1_linear_402_224)"/>
<path d="M91.4468 84C91.4468 70.1929 102.664 59 116.5 59C130.336 59 141.553 70.1929 141.553 84C141.553 97.8071 130.336 109 116.5 109C102.664 109 91.4468 97.8071 91.4468 84Z" fill="url(#paint2_linear_402_224)"/>
<path d="M138.877 61.5459C144.656 67.2813 148.234 75.2237 148.234 84C148.234 92.7763 144.656 100.719 138.877 106.454C142.204 108.084 145.947 109 149.904 109C163.741 109 174.957 97.8071 174.957 84C174.957 70.1929 163.741 59 149.904 59C145.947 59 142.204 59.9155 138.877 61.5459Z" fill="url(#paint3_linear_402_224)"/>
<path d="M71.4043 144C71.4043 130.193 82.6209 119 96.4574 119H136.543C150.379 119 161.596 130.193 161.596 144C161.596 157.807 150.379 169 136.543 169H96.4574C82.6209 169 71.4043 157.807 71.4043 144Z" fill="url(#paint4_linear_402_224)"/>
<path d="M38 137.333C38 123.526 49.2167 112.333 63.0532 112.333H96.4574C78.9312 112.333 64.7234 126.511 64.7234 144C64.7234 150.832 66.8919 157.16 70.5795 162.333H63.0532C49.2167 162.333 38 151.14 38 137.333Z" fill="url(#paint5_linear_402_224)"/>
<path d="M168.277 144C168.277 150.832 166.108 157.16 162.42 162.333H169.947C183.783 162.333 195 151.14 195 137.333C195 123.526 183.783 112.333 169.947 112.333H136.543C154.069 112.333 168.277 126.511 168.277 144Z" fill="url(#paint6_linear_402_224)"/>
</g>
<defs>
<filter id="filter0_b_402_224" x="-24" y="-24" width="276" height="276" filterUnits="userSpaceOnUse" color-interpolation-filters="sRGB">
<feFlood flood-opacity="0" result="BackgroundImageFix"/>
<feGaussianBlur in="BackgroundImageFix" stdDeviation="12"/>
<feComposite in2="SourceAlpha" operator="in" result="effect1_backgroundBlur_402_224"/>
<feBlend mode="normal" in="SourceGraphic" in2="effect1_backgroundBlur_402_224" result="shape"/>
</filter>
<filter id="filter1_d_402_224" x="34.7442" y="55.7442" width="170.023" height="123.023" filterUnits="userSpaceOnUse" color-interpolation-filters="sRGB">
<feFlood flood-opacity="0" result="BackgroundImageFix"/>
<feColorMatrix in="SourceAlpha" type="matrix" values="0 0 0 0 0 0 0 0 0 0 0 0 0 0 0 0 0 0 127 0" result="hardAlpha"/>
<feOffset dx="3.25583" dy="3.25583"/>
<feGaussianBlur stdDeviation="3.25583"/>
<feColorMatrix type="matrix" values="0 0 0 0 0.156863 0 0 0 0 0.803922 0 0 0 0 0.662745 0 0 0 0.5 0"/>
<feBlend mode="normal" in2="BackgroundImageFix" result="effect1_dropShadow_402_224"/>
<feBlend mode="normal" in="SourceGraphic" in2="effect1_dropShadow_402_224" result="shape"/>
</filter>
<linearGradient id="paint0_linear_402_224" x1="1" y1="1" x2="227.115" y2="226.885" gradientUnits="userSpaceOnUse">
<stop stop-color="white" stop-opacity="0.25"/>
<stop offset="1" stop-color="white" stop-opacity="0"/>
</linearGradient>
<linearGradient id="paint1_linear_402_224" x1="117.822" y1="192.435" x2="261.492" y2="-8.57154" gradientUnits="userSpaceOnUse">
<stop stop-color="white"/>
<stop offset="1" stop-color="white" stop-opacity="0.2"/>
</linearGradient>
<linearGradient id="paint2_linear_402_224" x1="117.822" y1="192.435" x2="261.492" y2="-8.57154" gradientUnits="userSpaceOnUse">
<stop stop-color="white"/>
<stop offset="1" stop-color="white" stop-opacity="0.2"/>
</linearGradient>
<linearGradient id="paint3_linear_402_224" x1="117.822" y1="192.435" x2="261.492" y2="-8.57154" gradientUnits="userSpaceOnUse">
<stop stop-color="white"/>
<stop offset="1" stop-color="white" stop-opacity="0.2"/>
</linearGradient>
<linearGradient id="paint4_linear_402_224" x1="117.822" y1="192.435" x2="261.492" y2="-8.57154" gradientUnits="userSpaceOnUse">
<stop stop-color="white"/>
<stop offset="1" stop-color="white" stop-opacity="0.2"/>
</linearGradient>
<linearGradient id="paint5_linear_402_224" x1="117.822" y1="192.435" x2="261.492" y2="-8.57154" gradientUnits="userSpaceOnUse">
<stop stop-color="white"/>
<stop offset="1" stop-color="white" stop-opacity="0.2"/>
</linearGradient>
<linearGradient id="paint6_linear_402_224" x1="117.822" y1="192.435" x2="261.492" y2="-8.57154" gradientUnits="userSpaceOnUse">
<stop stop-color="white"/>
<stop offset="1" stop-color="white" stop-opacity="0.2"/>
</linearGradient>
</defs>
</svg>
